<?xml version="1.0" ?>
<svg baseProfile="full" height="600px" version="1.1" viewBox="-32.16 -32.16 384.32 384.32" width="600px" xmlns="http://www.w3.org/2000/svg" xmlns:ev="http://www.w3.org/2001/xml-events" xmlns:xlink="http://www.w3.org/1999/xlink">
	<defs/>
	<path d="M 76.74,82.485 L 73.237,69.307 L 60.917,83.949 L 72.701,138.941 L 91.359,226.337 L 98.233,257.761 C 99.215,260.707 101.179,270.527 103.143,272.49 C 105.107,275.436 117.873,280.346 121.801,281.328 L 107.071,212.59 L 101.179,187.058 C 101.179,183.13 105.107,179.203 108.053,176.256 C 114.927,169.382 122.783,162.508 132.603,161.527 C 149.297,160.545 151.261,181.167 166.973,187.058 C 181.703,191.968 190.541,180.184 204.289,180.184 C 216.072,180.184 224.912,191.968 241.605,191.968 C 252.408,191.968 267.136,190.004 274.994,181.166 C 281.867,172.328 278.922,149.742 276.957,138.94 C 275.975,135.012 274.994,128.138 272.047,125.192 C 269.102,121.264 266.154,121.264 262.227,117.336 C 257.317,111.444 257.317,102.606 243.569,100.642 C 228.84,98.678 214.11,108.498 204.29,102.606 C 193.487,95.732 191.524,79.039 185.632,68.237 C 173.849,48.597 159.99,43.523 139.478,45.651 C 121.614,47.504 95.993,60.175 76.74,82.485 L 76.74,82.485 M 146.351,285.257 L 163.045,286.238 L 160.1,270.526 L 156.172,255.797 C 155.19,252.851 153.226,245.977 154.208,243.031 C 155.19,240.085 159.118,238.121 162.063,236.157 C 168.938,232.229 176.793,226.337 184.649,229.283 C 196.434,232.229 200.362,246.959 214.11,248.923 C 220.983,248.923 228.84,243.031 235.714,240.085 C 238.661,239.104 240.624,239.104 243.569,239.104 C 246.516,239.104 248.479,241.068 251.426,239.104 C 253.389,238.122 258.299,231.248 260.264,228.301 C 265.174,219.463 275.975,200.806 273.03,190.004 C 261.247,194.914 248.479,199.823 234.731,196.878 C 221.965,194.914 213.127,187.058 204.29,186.075 C 193.487,185.094 185.632,192.949 174.831,193.931 C 159.118,194.913 152.244,178.219 144.388,171.345 C 138.496,166.435 130.64,165.453 123.766,170.364 C 120.82,172.328 121.802,176.256 122.784,179.202 L 126.712,199.823 L 142.424,269.545 L 146.351,285.257 L 146.351,285.257" fill="none" stroke="#000000" stroke-width="0.32"/>
	<path d="M 0.0,159.998 L 0.0,159.99 L 0.071,159.99 C 0.073,115.766 17.956,75.768 46.866,46.861 C 75.772,17.957 115.763,0.076 159.984,0.071 L 159.984,0.0 L 160.0,0.0 L 160.009,0.0 L 160.009,0.072 C 204.233,0.074 244.229,17.957 273.139,46.868 C 302.043,75.775 319.924,115.764 319.928,159.981 L 320.0,159.981 L 320.0,159.998 L 320.0,160.006 L 319.928,160.006 C 319.926,204.233 302.043,244.23 273.131,273.138 C 244.227,302.043 204.235,319.924 160.018,319.929 L 160.018,320.0 L 160.0,320.0 L 159.993,320.0 L 159.993,319.929 C 115.766,319.926 75.769,302.043 46.861,273.133 C 17.957,244.226 0.075,204.236 0.071,160.015 L 0.0,160.015 L 0.0,159.998 L 0.0,159.998 L 0.0,159.998 M 36.301,159.99 L 36.372,159.99 L 36.372,159.998 L 36.372,160.015 L 36.301,160.015 C 36.304,194.101 50.167,225.007 72.577,247.417 C 94.989,269.832 125.902,283.697 159.993,283.699 L 159.993,283.628 L 160.0,283.628 L 160.018,283.628 L 160.018,283.699 C 194.102,283.696 225.008,269.832 247.418,247.422 C 269.83,225.01 283.697,194.096 283.697,160.006 L 283.627,160.006 L 283.627,159.998 L 283.627,159.981 L 283.697,159.981 C 283.695,125.899 269.83,94.992 247.422,72.584 C 225.01,50.168 194.098,36.302 160.009,36.302 L 160.009,36.372 L 160.0,36.372 L 159.984,36.372 L 159.984,36.302 C 125.899,36.304 94.992,50.168 72.582,72.578 C 50.168,94.989 36.303,125.901 36.301,159.99 L 36.301,159.99 L 36.301,159.99" fill="none" stroke="#000000" stroke-width="0.32"/>
</svg>
