<?xml version="1.0" ?>
<svg xmlns="http://www.w3.org/2000/svg" xmlns:ev="http://www.w3.org/2001/xml-events" xmlns:xlink="http://www.w3.org/1999/xlink" baseProfile="full" height="600px" version="1.1" viewBox="-32.16 -32.16 384.32 384.32" width="600px">
	<defs/>
	<path d="M 76.74,82.485 L 73.237,69.307 L 60.917,83.949 L 72.70100000000001,138.941 L 91.35900000000001,226.337 L 98.233,257.76099999999997 C 99.215,260.707 101.179,270.527 103.143,272.48999999999995 C 105.107,275.436 117.873,280.34599999999995 121.801,281.328 L 107.071,212.58999999999997 L 101.179,187.05799999999996 C 101.179,183.12999999999997 105.107,179.20299999999997 108.053,176.25599999999997 C 114.92699999999999,169.38199999999998 122.783,162.50799999999998 132.603,161.527 C 149.297,160.545 151.26100000000002,181.16699999999997 166.973,187.058 C 181.703,191.968 190.54100000000003,180.184 204.28900000000002,180.184 C 216.072,180.184 224.912,191.968 241.60500000000002,191.968 C 252.40800000000002,191.968 267.136,190.004 274.994,181.166 C 281.867,172.328 278.922,149.742 276.95700000000005,138.94 C 275.975,135.012 274.994,128.138 272.047,125.192 C 269.10200000000003,121.264 266.15400000000005,121.264 262.22700000000003,117.336 C 257.317,111.444 257.317,102.606 243.56900000000002,100.642 C 228.84000000000003,98.678 214.11,108.49799999999999 204.29000000000002,102.606 C 193.48700000000002,95.732 191.52400000000003,79.03899999999999 185.632,68.237 C 173.84900000000002,48.596999999999994 159.99,43.522999999999996 139.478,45.650999999999996 C 121.614,47.504 95.993,60.175 76.74,82.485 L 76.74,82.485 M 146.351,285.257 L 163.045,286.238 L 160.1,270.526 L 156.172,255.79700000000003 C 155.19,252.85100000000003 153.226,245.97700000000003 154.208,243.03100000000003 C 155.19,240.08500000000004 159.118,238.12100000000004 162.063,236.15700000000004 C 168.938,232.22900000000004 176.79299999999998,226.33700000000005 184.649,229.28300000000004 C 196.434,232.22900000000004 200.362,246.95900000000003 214.11,248.92300000000006 C 220.983,248.92300000000006 228.84,243.03100000000006 235.714,240.08500000000006 C 238.661,239.10400000000007 240.624,239.10400000000007 243.569,239.10400000000007 C 246.516,239.10400000000007 248.47899999999998,241.06800000000007 251.426,239.10400000000007 C 253.38899999999998,238.12200000000007 258.299,231.24800000000008 260.264,228.30100000000007 C 265.17400000000004,219.46300000000008 275.975,200.80600000000007 273.03000000000003,190.00400000000008 C 261.247,194.91400000000007 248.47900000000004,199.82300000000006 234.73100000000002,196.87800000000007 C 221.96500000000003,194.91400000000007 213.127,187.05800000000008 204.29000000000002,186.07500000000007 C 193.48700000000002,185.09400000000008 185.632,192.94900000000007 174.83100000000002,193.93100000000007 C 159.11800000000002,194.91300000000007 152.24400000000003,178.21900000000008 144.388,171.34500000000008 C 138.496,166.4350000000001 130.64000000000001,165.4530000000001 123.766,170.3640000000001 C 120.82000000000001,172.3280000000001 121.802,176.25600000000009 122.784,179.20200000000008 L 126.712,199.8230000000001 L 142.424,269.5450000000001 L 146.351,285.257 L 146.351,285.257" fill="none" stroke="#000000" stroke-width="0.32"/>
	<path d="M 0.0,159.998 L 0.0,159.98999999999998 L 0.071,159.98999999999998 C 0.073,115.76599999999999 17.956000000000003,75.76799999999999 46.866,46.860999999999976 C 75.77199999999999,17.956999999999976 115.763,0.0759999999999792 159.98399999999998,0.07099999999997664 L 159.98399999999998,0.0 L 160.0,0.0 L 160.009,0.0 L 160.009,0.072 C 204.23299999999998,0.074 244.22899999999998,17.957 273.139,46.868 C 302.043,75.775 319.924,115.76400000000001 319.928,159.981 L 320.0,159.981 L 320.0,159.998 L 320.0,160.006 L 319.928,160.006 C 319.926,204.233 302.043,244.23000000000002 273.131,273.13800000000003 C 244.22699999999998,302.043 204.23499999999996,319.92400000000004 160.01799999999997,319.92900000000003 L 160.01799999999997,320.0 L 160.0,320.0 L 159.993,320.0 L 159.993,319.929 C 115.76599999999999,319.926 75.76899999999999,302.04299999999995 46.86099999999999,273.133 C 17.95699999999999,244.22599999999997 0.07499999999998863,204.236 0.07099999999999085,160.015 L 0.0,160.015 L 0.0,159.998 L 0.0,159.998 L 0.0,159.998 M 36.301,159.99 L 36.372,159.99 L 36.372,159.99800000000002 L 36.372,160.01500000000001 L 36.301,160.01500000000001 C 36.304,194.101 50.167,225.007 72.577,247.41700000000003 C 94.989,269.83200000000005 125.902,283.697 159.993,283.699 L 159.993,283.628 L 160.0,283.628 L 160.018,283.628 L 160.018,283.699 C 194.102,283.696 225.00799999999998,269.832 247.418,247.42200000000003 C 269.83,225.01000000000002 283.697,194.09600000000003 283.697,160.00600000000003 L 283.627,160.00600000000003 L 283.627,159.99800000000002 L 283.627,159.98100000000002 L 283.697,159.98100000000002 C 283.695,125.89900000000003 269.83,94.99200000000002 247.422,72.58400000000002 C 225.01,50.16800000000002 194.098,36.30200000000002 160.00900000000001,36.30200000000002 L 160.00900000000001,36.37200000000002 L 160.0,36.37200000000002 L 159.984,36.37200000000002 L 159.984,36.30200000000002 C 125.899,36.30400000000002 94.992,50.16800000000002 72.58200000000001,72.57800000000003 C 50.168,94.989 36.303,125.901 36.301,159.99 L 36.301,159.99 L 36.301,159.99" fill="none" stroke="#000000" stroke-width="0.32"/>
</svg>
